<svg width="120" height="18" viewBox="0 0 120 18" fill="none" xmlns="http://www.w3.org/2000/svg">
    <path
        d="M0 17.7017V15.0912L10.392 2.11326L10.872 3.58011H0.192V0.298342H14.328V2.90884L3.96 15.8867L3.48 14.4199H14.688V17.7017H0Z"
        fill="#4B5EC5" />
    <path d="M16.2735 12.2569V9.14917H23.0655V12.2569H16.2735Z" fill="#4B5EC5" />
    <path
        d="M26.2753 17.7017V0.298342H29.4913L36.6433 12.5801H34.9393L41.9713 0.298342H45.1633L45.2113 17.7017H41.5633L41.5393 6.09116H42.2113L36.5953 15.8619H34.8433L29.1073 6.09116H29.9233V17.7017H26.2753Z"
        fill="#4B5EC5" />
    <path
        d="M57.3572 18C56.0292 18 54.7972 17.7762 53.6612 17.3287C52.5412 16.8812 51.5652 16.2514 50.7332 15.4392C49.9172 14.6271 49.2772 13.674 48.8132 12.5801C48.3652 11.4862 48.1412 10.2928 48.1412 9C48.1412 7.70718 48.3652 6.51381 48.8132 5.41989C49.2772 4.32597 49.9252 3.37293 50.7572 2.56077C51.5892 1.74862 52.5652 1.11878 53.6852 0.67127C54.8052 0.223757 56.0212 0 57.3332 0C58.6612 0 59.8772 0.223757 60.9812 0.67127C62.1012 1.11878 63.0692 1.74862 63.8852 2.56077C64.7172 3.37293 65.3652 4.32597 65.8292 5.41989C66.2932 6.49724 66.5252 7.69061 66.5252 9C66.5252 10.2928 66.2932 11.4945 65.8292 12.605C65.3652 13.6989 64.7172 14.6519 63.8852 15.4641C63.0692 16.2597 62.1012 16.8812 60.9812 17.3287C59.8772 17.7762 58.6692 18 57.3572 18ZM57.3332 14.5691C58.0852 14.5691 58.7732 14.4365 59.3972 14.1713C60.0372 13.9061 60.5972 13.5249 61.0772 13.0276C61.5572 12.5304 61.9252 11.942 62.1812 11.2624C62.4532 10.5829 62.5892 9.82873 62.5892 9C62.5892 8.17127 62.4532 7.41713 62.1812 6.73757C61.9252 6.05801 61.5572 5.46961 61.0772 4.97238C60.6132 4.47514 60.0612 4.09392 59.4212 3.82873C58.7812 3.56354 58.0852 3.43094 57.3332 3.43094C56.5812 3.43094 55.8852 3.56354 55.2452 3.82873C54.6212 4.09392 54.0692 4.47514 53.5892 4.97238C53.1092 5.46961 52.7332 6.05801 52.4612 6.73757C52.2052 7.41713 52.0772 8.17127 52.0772 9C52.0772 9.81215 52.2052 10.5663 52.4612 11.2624C52.7332 11.942 53.1012 12.5304 53.5652 13.0276C54.0452 13.5249 54.6052 13.9061 55.2452 14.1713C55.8852 14.4365 56.5812 14.5691 57.3332 14.5691Z"
        fill="#4B5EC5" />
    <path
        d="M69.4472 17.7017V0.298342H72.6632L82.5752 12.8287H81.0152V0.298342H84.8552V17.7017H81.6632L71.7272 5.17127H73.2872V17.7017H69.4472Z"
        fill="#4B5EC5" />
    <path
        d="M92.406 7.30939H100.494V10.442H92.406V7.30939ZM92.694 14.4696H101.838V17.7017H88.83V0.298342H101.526V3.53039H92.694V14.4696Z"
        fill="#4B5EC5" />
    <path
        d="M108.943 17.7017V10.5912L109.831 13.0276L102.439 0.298342H106.567L112.231 10.0691H109.855L115.543 0.298342H119.359L111.967 13.0276L112.831 10.5912V17.7017H108.943Z"
        fill="#4B5EC5" />
</svg>
    